<svg width="529" height="693" viewBox="0 0 529 693" fill="#FFF" xmlns="http://www.w3.org/2000/svg">
<g filter="url(#filter0_d_105_70)">
<mask id="path-1-inside-1_105_70" fill="white">
<path fill-rule="evenodd" clip-rule="evenodd" d="M454.504 2C452.964 -0.666662 449.115 -0.666671 447.576 2L387.216 106.545H128.924L68.5642 2.00001C67.0246 -0.666659 63.1756 -0.666668 61.636 2L0.541867 107.818C-0.638797 109.863 0.217703 112.3 2.06989 113.325V672.606C2.06989 677.024 5.65161 680.606 10.0699 680.606H506.07C510.488 680.606 514.07 677.024 514.07 672.606V113.325C515.922 112.3 516.779 109.863 515.598 107.818L454.504 2Z"/>
</mask>
<path fill-rule="evenodd" clip-rule="evenodd" d="M454.504 2C452.964 -0.666662 449.115 -0.666671 447.576 2L387.216 106.545H128.924L68.5642 2.00001C67.0246 -0.666659 63.1756 -0.666668 61.636 2L0.541867 107.818C-0.638797 109.863 0.217703 112.3 2.06989 113.325V672.606C2.06989 677.024 5.65161 680.606 10.0699 680.606H506.07C510.488 680.606 514.07 677.024 514.07 672.606V113.325C515.922 112.3 516.779 109.863 515.598 107.818L454.504 2Z" fill="#120c14"/>
<path d="M447.576 2L446.71 1.49999L446.71 1.5L447.576 2ZM454.504 2L455.37 1.5L455.37 1.5L454.504 2ZM387.216 106.545V107.545H387.794L388.082 107.045L387.216 106.545ZM128.924 106.545L128.058 107.045L128.346 107.545H128.924V106.545ZM68.5642 2.00001L67.6982 2.50001L67.6982 2.50001L68.5642 2.00001ZM61.636 2L62.5021 2.5L62.5021 2.5L61.636 2ZM0.541867 107.818L-0.324158 107.318L-0.324158 107.318L0.541867 107.818ZM2.06989 113.325H3.06989V112.736L2.55415 112.45L2.06989 113.325ZM514.07 113.325L513.586 112.451L513.07 112.736V113.325H514.07ZM515.598 107.818L514.732 108.318L514.732 108.318L515.598 107.818ZM448.442 2.5C449.596 0.499999 452.483 0.5 453.638 2.50001L455.37 1.5C453.445 -1.83332 448.634 -1.83334 446.71 1.49999L448.442 2.5ZM388.082 107.045L448.442 2.5L446.71 1.5L386.35 106.045L388.082 107.045ZM387.216 105.545H128.924V107.545H387.216V105.545ZM129.79 106.045L69.4303 1.50001L67.6982 2.50001L128.058 107.045L129.79 106.045ZM69.4303 1.50001C67.5058 -1.83332 62.6945 -1.83334 60.77 1.5L62.5021 2.5C63.6568 0.500002 66.5435 0.500005 67.6982 2.50001L69.4303 1.50001ZM60.77 1.5L-0.324158 107.318L1.40789 108.318L62.5021 2.5L60.77 1.5ZM-0.324158 107.318C-1.80405 109.881 -0.721037 112.924 1.58563 114.2L2.55415 112.45C1.15644 111.677 0.526459 109.845 1.40789 108.318L-0.324158 107.318ZM1.06989 113.325V672.606H3.06989V113.325H1.06989ZM1.06989 672.606C1.06989 677.577 5.09933 681.606 10.0699 681.606V679.606C6.2039 679.606 3.06989 676.472 3.06989 672.606H1.06989ZM10.0699 681.606H506.07V679.606H10.0699V681.606ZM506.07 681.606C511.04 681.606 515.07 677.577 515.07 672.606H513.07C513.07 676.472 509.936 679.606 506.07 679.606V681.606ZM515.07 672.606V113.325H513.07V672.606H515.07ZM514.732 108.318C515.614 109.845 514.983 111.677 513.586 112.451L514.554 114.2C516.861 112.924 517.944 109.882 516.464 107.318L514.732 108.318ZM453.638 2.5L514.732 108.318L516.464 107.318L455.37 1.5L453.638 2.5Z" fill="black" mask="url(#path-1-inside-1_105_70)"/>
</g>
<defs>
<filter id="filter0_d_105_70" x="0" y="0" width="528.14" height="692.606" filterUnits="userSpaceOnUse" color-interpolation-filters="sRGB">
<feFlood flood-opacity="0" result="BackgroundImageFix"/>
<feColorMatrix in="SourceAlpha" type="matrix" values="0 0 0 0 0 0 0 0 0 0 0 0 0 0 0 0 0 0 127 0" result="hardAlpha"/>
<feOffset dx="6" dy="6"/>
<feGaussianBlur stdDeviation="3"/>
<feComposite in2="hardAlpha" operator="out"/>
<feColorMatrix type="matrix" values="0 0 0 0 0 0 0 0 0 0 0 0 0 0 0 0 0 0 0.3 0"/>
<feBlend mode="normal" in2="BackgroundImageFix" result="effect1_dropShadow_105_70"/>
<feBlend mode="normal" in="SourceGraphic" in2="effect1_dropShadow_105_70" result="shape"/>
</filter>
</defs>
</svg>
