<svg width="445" height="365" viewBox="0 0 445 365" fill="none" xmlns="http://www.w3.org/2000/svg">
<g filter="url(#filter0_d_2_43)">
<mask id="path-1-inside-1_2_43" fill="white">
<path fill-rule="evenodd" clip-rule="evenodd" d="M119.036 6.00001C120.575 3.33334 124.424 3.33333 125.964 5.99999L154.11 54.75C154.53 55.4774 154.692 56.2545 154.643 57H289.357C289.308 56.2545 289.47 55.4774 289.89 54.75L318.036 6.00001C319.576 3.33334 323.424 3.33333 324.964 5.99999L353.11 54.75C353.53 55.4774 353.692 56.2545 353.643 57H354V345C354 349.418 350.418 353 346 353H98C93.5817 353 90 349.418 90 345V57H90.3566C90.3079 56.2545 90.4701 55.4774 90.8901 54.75L119.036 6.00001Z"/>
</mask>
<path fill-rule="evenodd" clip-rule="evenodd" d="M119.036 6.00001C120.575 3.33334 124.424 3.33333 125.964 5.99999L154.11 54.75C154.53 55.4774 154.692 56.2545 154.643 57H289.357C289.308 56.2545 289.47 55.4774 289.89 54.75L318.036 6.00001C319.576 3.33334 323.424 3.33333 324.964 5.99999L353.11 54.75C353.53 55.4774 353.692 56.2545 353.643 57H354V345C354 349.418 350.418 353 346 353H98C93.5817 353 90 349.418 90 345V57H90.3566C90.3079 56.2545 90.4701 55.4774 90.8901 54.75L119.036 6.00001Z" fill="url(#paint0_linear_2_43)"/>
<path d="M125.964 5.99999L126.83 5.49999L126.83 5.49999L125.964 5.99999ZM119.036 6.00001L119.902 6.50001L119.902 6.50001L119.036 6.00001ZM154.11 54.75L154.976 54.25L154.976 54.25L154.11 54.75ZM154.643 57L153.646 56.9348L153.576 58H154.643V57ZM289.357 57V58H290.424L290.354 56.9348L289.357 57ZM289.89 54.75L290.756 55.25L290.756 55.25L289.89 54.75ZM318.036 6.00001L317.17 5.5L317.17 5.50001L318.036 6.00001ZM324.964 5.99999L325.83 5.49999L325.83 5.49999L324.964 5.99999ZM353.11 54.75L352.244 55.25L352.244 55.25L353.11 54.75ZM353.643 57L352.646 56.9348L352.576 58H353.643V57ZM354 57H355V56H354V57ZM90 57V56H89V57H90ZM90.3566 57V58H91.424L91.3544 56.9348L90.3566 57ZM90.8901 54.75L91.7561 55.25L91.7561 55.25L90.8901 54.75ZM126.83 5.49999C124.906 2.16666 120.094 2.16668 118.17 5.50001L119.902 6.50001C121.057 4.5 123.943 4.5 125.098 6.5L126.83 5.49999ZM154.976 54.25L126.83 5.49999L125.098 6.49999L153.244 55.25L154.976 54.25ZM155.641 57.0652C155.703 56.127 155.497 55.1526 154.976 54.25L153.244 55.25C153.563 55.8023 153.682 56.382 153.646 56.9348L155.641 57.0652ZM289.357 56H154.643V58H289.357V56ZM290.354 56.9348C290.318 56.382 290.437 55.8023 290.756 55.25L289.024 54.25C288.503 55.1526 288.297 56.127 288.359 57.0652L290.354 56.9348ZM290.756 55.25L318.902 6.50001L317.17 5.50001L289.024 54.25L290.756 55.25ZM318.902 6.50001C320.057 4.5 322.943 4.5 324.098 6.5L325.83 5.49999C323.906 2.16666 319.094 2.16668 317.17 5.5L318.902 6.50001ZM324.098 6.49999L352.244 55.25L353.976 54.25L325.83 5.49999L324.098 6.49999ZM352.244 55.25C352.563 55.8023 352.682 56.382 352.646 56.9348L354.641 57.0652C354.703 56.127 354.497 55.1526 353.976 54.25L352.244 55.25ZM354 56H353.643V58H354V56ZM355 345V57H353V345H355ZM346 354C350.971 354 355 349.971 355 345H353C353 348.866 349.866 352 346 352V354ZM98 354H346V352H98V354ZM89 345C89 349.971 93.0294 354 98 354V352C94.134 352 91 348.866 91 345H89ZM89 57V345H91V57H89ZM90.3566 56H90V58H90.3566V56ZM90.024 54.25C89.5029 55.1526 89.2974 56.127 89.3587 57.0652L91.3544 56.9348C91.3183 56.382 91.4372 55.8023 91.7561 55.25L90.024 54.25ZM118.17 5.50001L90.024 54.25L91.7561 55.25L119.902 6.50001L118.17 5.50001Z" fill="black" mask="url(#path-1-inside-1_2_43)"/>
</g>
<path d="M162.441 187L146.241 155.4H138.541V187H131.041V118.2H138.541V148.8H146.241L162.441 118.2H170.541L152.441 151.7L170.741 187H162.441ZM196.132 187.8C189.599 187.8 184.932 186.9 182.132 185.1C179.332 183.3 177.532 180.133 176.732 175.6C175.932 171 175.532 163.333 175.532 152.6C175.532 141.867 175.932 134.233 176.732 129.7C177.532 125.1 179.332 121.9 182.132 120.1C184.932 118.3 189.599 117.4 196.132 117.4C202.666 117.4 207.332 118.3 210.132 120.1C212.932 121.9 214.732 125.1 215.532 129.7C216.332 134.233 216.732 141.867 216.732 152.6C216.732 163.333 216.332 171 215.532 175.6C214.732 180.133 212.932 183.3 210.132 185.1C207.332 186.9 202.666 187.8 196.132 187.8ZM196.132 181.2C200.399 181.2 203.366 180.7 205.032 179.7C206.699 178.7 207.799 176.333 208.332 172.6C208.866 168.867 209.132 162.2 209.132 152.6C209.132 143 208.866 136.333 208.332 132.6C207.799 128.867 206.699 126.5 205.032 125.5C203.366 124.5 200.399 124 196.132 124C191.866 124 188.899 124.5 187.232 125.5C185.566 126.5 184.466 128.867 183.932 132.6C183.399 136.333 183.132 143 183.132 152.6C183.132 162.2 183.399 168.867 183.932 172.6C184.466 176.333 185.566 178.7 187.232 179.7C188.899 180.7 191.866 181.2 196.132 181.2ZM228.99 118.2H245.39C252.057 118.2 256.79 119.067 259.59 120.8C262.457 122.533 264.29 125.667 265.09 130.2C265.957 134.667 266.39 142.133 266.39 152.6C266.39 163.067 265.957 170.567 265.09 175.1C264.29 179.567 262.457 182.667 259.59 184.4C256.79 186.133 252.057 187 245.39 187H228.99V118.2ZM245.09 180.4C249.69 180.4 252.824 179.933 254.49 179C256.224 178 257.39 175.7 257.99 172.1C258.59 168.5 258.89 162 258.89 152.6C258.89 143.267 258.59 136.8 257.99 133.2C257.39 129.533 256.224 127.233 254.49 126.3C252.757 125.3 249.624 124.8 245.09 124.8H236.39V180.4H245.09ZM278.697 187V118.2H311.197V124.8H286.197V148.9H307.897V155.5H286.197V180.4H311.197V187H278.697Z" fill="url(#paint1_linear_2_43)"/>
<path d="M165.779 300L142.079 247.1H141.679V300H134.479V231.2H142.379L165.679 283.2H166.079V231.2H173.279V300H165.779ZM187.311 300V231.2H219.811V237.8H194.811V261.9H216.511V268.5H194.811V293.4H219.811V300H187.311ZM261.972 300L245.772 268.4H238.072V300H230.572V231.2H238.072V261.8H245.772L261.972 231.2H270.072L251.972 264.7L270.272 300H261.972ZM295.664 300.8C289.13 300.8 284.464 299.9 281.664 298.1C278.864 296.3 277.064 293.133 276.264 288.6C275.464 284 275.064 276.333 275.064 265.6C275.064 254.867 275.464 247.233 276.264 242.7C277.064 238.1 278.864 234.9 281.664 233.1C284.464 231.3 289.13 230.4 295.664 230.4C302.197 230.4 306.864 231.3 309.664 233.1C312.464 234.9 314.264 238.1 315.064 242.7C315.864 247.233 316.264 254.867 316.264 265.6C316.264 276.333 315.864 284 315.064 288.6C314.264 293.133 312.464 296.3 309.664 298.1C306.864 299.9 302.197 300.8 295.664 300.8ZM295.664 294.2C299.93 294.2 302.897 293.7 304.564 292.7C306.23 291.7 307.33 289.333 307.864 285.6C308.397 281.867 308.664 275.2 308.664 265.6C308.664 256 308.397 249.333 307.864 245.6C307.33 241.867 306.23 239.5 304.564 238.5C302.897 237.5 299.93 237 295.664 237C291.397 237 288.43 237.5 286.764 238.5C285.097 239.5 283.997 241.867 283.464 245.6C282.93 249.333 282.664 256 282.664 265.6C282.664 275.2 282.93 281.867 283.464 285.6C283.997 289.333 285.097 291.7 286.764 292.7C288.43 293.7 291.397 294.2 295.664 294.2Z" fill="url(#paint2_linear_2_43)"/>
<g filter="url(#filter1_d_2_43)">
<path fill-rule="evenodd" clip-rule="evenodd" d="M371.258 169.163C368.124 171.167 364.19 168.182 365.277 164.624L381.68 110.954C382.493 108.294 385.707 107.255 387.923 108.937L418.799 132.371C421.015 134.053 420.88 137.428 418.536 138.927L371.258 169.163ZM371.331 185.947C367.103 186.64 364.892 181.099 368.436 178.691L407.136 152.394C409.25 150.957 412.152 151.845 413.099 154.22L420.573 172.951C421.52 175.325 420.027 177.967 417.504 178.381L371.331 185.947ZM371.11 189.407C366.693 189.124 365.155 195.163 369.17 197.027L394.022 208.563C396.293 209.618 398.964 208.349 399.582 205.922L402.073 196.14C402.691 193.713 400.952 191.321 398.453 191.161L371.11 189.407Z" fill="url(#paint3_linear_2_43)"/>
</g>
<g filter="url(#filter2_d_2_43)">
<path fill-rule="evenodd" clip-rule="evenodd" d="M73.1539 169.163C76.2881 171.167 80.2217 168.182 79.1343 164.624L62.7318 110.954C61.9186 108.294 58.7046 107.255 56.4883 108.937L25.6126 132.371C23.3963 134.053 23.5317 137.428 25.8757 138.927L73.1539 169.163ZM73.0804 185.947C77.3086 186.64 79.5192 181.099 75.9754 178.691L37.2759 152.394C35.1613 150.957 32.2599 151.845 31.3125 154.22L23.8388 172.951C22.8914 175.325 24.3842 177.967 26.9072 178.381L73.0804 185.947ZM73.3015 189.407C77.719 189.124 79.2569 195.163 75.2418 197.027L50.3898 208.563C48.1182 209.618 45.4473 208.349 44.8293 205.922L42.3384 196.14C41.7204 193.713 43.4594 191.321 45.9586 191.161L73.3015 189.407Z" fill="url(#paint4_linear_2_43)"/>
</g>
<defs>
<filter id="filter0_d_2_43" x="90" y="4" width="276" height="361" filterUnits="userSpaceOnUse" color-interpolation-filters="sRGB">
<feFlood flood-opacity="0" result="BackgroundImageFix"/>
<feColorMatrix in="SourceAlpha" type="matrix" values="0 0 0 0 0 0 0 0 0 0 0 0 0 0 0 0 0 0 127 0" result="hardAlpha"/>
<feOffset dx="6" dy="6"/>
<feGaussianBlur stdDeviation="3"/>
<feComposite in2="hardAlpha" operator="out"/>
<feColorMatrix type="matrix" values="0 0 0 0 0 0 0 0 0 0 0 0 0 0 0 0 0 0 0.3 0"/>
<feBlend mode="normal" in2="BackgroundImageFix" result="effect1_dropShadow_2_43"/>
<feBlend mode="normal" in="SourceGraphic" in2="effect1_dropShadow_2_43" result="shape"/>
</filter>
<filter id="filter1_d_2_43" x="361.093" y="108.121" width="63.7674" height="108.816" filterUnits="userSpaceOnUse" color-interpolation-filters="sRGB">
<feFlood flood-opacity="0" result="BackgroundImageFix"/>
<feColorMatrix in="SourceAlpha" type="matrix" values="0 0 0 0 0 0 0 0 0 0 0 0 0 0 0 0 0 0 127 0" result="hardAlpha"/>
<feOffset dy="4"/>
<feGaussianBlur stdDeviation="2"/>
<feComposite in2="hardAlpha" operator="out"/>
<feColorMatrix type="matrix" values="0 0 0 0 0 0 0 0 0 0 0 0 0 0 0 0 0 0 0.25 0"/>
<feBlend mode="normal" in2="BackgroundImageFix" result="effect1_dropShadow_2_43"/>
<feBlend mode="normal" in="SourceGraphic" in2="effect1_dropShadow_2_43" result="shape"/>
</filter>
<filter id="filter2_d_2_43" x="19.5517" y="108.121" width="63.7675" height="108.816" filterUnits="userSpaceOnUse" color-interpolation-filters="sRGB">
<feFlood flood-opacity="0" result="BackgroundImageFix"/>
<feColorMatrix in="SourceAlpha" type="matrix" values="0 0 0 0 0 0 0 0 0 0 0 0 0 0 0 0 0 0 127 0" result="hardAlpha"/>
<feOffset dy="4"/>
<feGaussianBlur stdDeviation="2"/>
<feComposite in2="hardAlpha" operator="out"/>
<feColorMatrix type="matrix" values="0 0 0 0 0 0 0 0 0 0 0 0 0 0 0 0 0 0 0.25 0"/>
<feBlend mode="normal" in2="BackgroundImageFix" result="effect1_dropShadow_2_43"/>
<feBlend mode="normal" in="SourceGraphic" in2="effect1_dropShadow_2_43" result="shape"/>
</filter>
<linearGradient id="paint0_linear_2_43" x1="103.5" y1="25" x2="347.5" y2="348.5" gradientUnits="userSpaceOnUse">
<stop stop-color="#120C14"/>
<stop offset="0.0001" stop-color="#120C14"/>
<stop offset="1" stop-color="#382845"/>
</linearGradient>
<linearGradient id="paint1_linear_2_43" x1="219.5" y1="74" x2="219.5" y2="222" gradientUnits="userSpaceOnUse">
<stop stop-color="white"/>
<stop offset="1" stop-color="#E0E0E0"/>
</linearGradient>
<linearGradient id="paint2_linear_2_43" x1="224.5" y1="187" x2="224.5" y2="335" gradientUnits="userSpaceOnUse">
<stop stop-color="white"/>
<stop offset="1" stop-color="#E0E0E0"/>
</linearGradient>
<linearGradient id="paint3_linear_2_43" x1="383" y1="108" x2="424" y2="231.5" gradientUnits="userSpaceOnUse">
<stop/>
<stop offset="0.0001"/>
<stop offset="1" stop-color="#382845"/>
</linearGradient>
<linearGradient id="paint4_linear_2_43" x1="58" y1="112" x2="81.8039" y2="220.86" gradientUnits="userSpaceOnUse">
<stop/>
<stop offset="0.0001"/>
<stop offset="1" stop-color="#382845"/>
</linearGradient>
</defs>
</svg>
